<svg display="none" width="0" height="0" version="1.1" xmlns="http://www.w3.org/2000/svg" xmlns:xlink="http://www.w3.org/1999/xlink">
<defs>
<symbol id="icon-chevron-down" viewBox="0 0 1024 1024">
	<title>chevron-down</title>
	<path class="path1" d="M231.219 386.458c22.323-22.835 53.402-24.627 80.691 0l200.090 191.846 200.090-191.846c27.29-24.627 58.419-22.835 80.589 0 22.323 22.784 20.89 61.286 0 82.688-20.787 21.402-240.384 230.502-240.384 230.502-11.11 11.418-25.702 17.152-40.294 17.152s-29.184-5.734-40.397-17.152c0 0-219.494-209.101-240.384-230.502-20.941-21.402-22.323-59.904 0-82.688z"></path>
</symbol>
<symbol id="icon-chevron-left" viewBox="0 0 1024 1024">
	<title>chevron-left</title>
	<path class="path1" d="M637.542 231.219c22.835 22.323 24.627 53.402 0 80.691l-191.846 200.090 191.846 200.090c24.627 27.29 22.835 58.419 0 80.589-22.784 22.323-61.286 20.89-82.688 0-21.402-20.787-230.502-240.384-230.502-240.384-11.418-11.11-17.152-25.702-17.152-40.294s5.734-29.184 17.152-40.397c0 0 209.101-219.494 230.502-240.384 21.402-20.941 59.904-22.323 82.688 0z"></path>
</symbol>
<symbol id="icon-chevron-right" viewBox="0 0 1024 1024">
	<title>chevron-right</title>
	<path class="path1" d="M469.146 231.219c21.402 20.89 230.502 240.384 230.502 240.384 11.418 11.213 17.152 25.805 17.152 40.397s-5.734 29.184-17.152 40.294c0 0-209.101 219.597-230.502 240.384-21.402 20.89-59.904 22.323-82.688 0-22.835-22.221-24.627-53.299 0-80.589l191.846-200.090-191.846-200.090c-24.627-27.29-22.835-58.419 0-80.691 22.784-22.323 61.286-20.941 82.688 0z"></path>
</symbol>
<symbol id="icon-chevron-up" viewBox="0 0 1024 1024">
	<title>chevron-up</title>
	<path class="path1" d="M792.781 637.542c-22.323 22.835-53.402 24.627-80.691 0l-200.090-191.846-200.090 191.846c-27.29 24.627-58.419 22.835-80.589 0-22.323-22.784-20.89-61.286 0-82.688 20.787-21.402 240.384-230.502 240.384-230.502 11.11-11.418 25.702-17.152 40.294-17.152s29.184 5.734 40.397 17.152c0 0 219.494 209.101 240.384 230.502 20.941 21.402 22.323 59.904 0 82.688z"></path>
</symbol>
<symbol id="icon-code" viewBox="0 0 1024 1024">
	<title>code</title>
	<path class="path1" d="M292.813 755.2c-12.083 0-24.269-4.25-33.997-12.902l-259.072-230.298 273.459-243.098c21.094-18.688 53.453-16.896 72.243 4.25s16.896 53.504-4.25 72.294l-187.341 166.554 172.954 153.702c21.146 18.79 23.040 51.149 4.25 72.294-10.086 11.418-24.166 17.203-38.246 17.203zM750.797 755.098l273.459-243.098-259.072-230.298c-21.146-18.79-53.504-16.896-72.243 4.25-18.79 21.146-16.896 53.504 4.25 72.294l172.954 153.754-187.341 166.502c-21.146 18.79-23.040 51.149-4.25 72.294 10.086 11.418 24.166 17.203 38.246 17.203 12.083 0 24.269-4.25 33.997-12.902zM511.283 827.648l102.4-614.4c4.659-27.904-14.182-54.272-42.086-58.931-28.006-4.71-54.323 14.182-58.88 42.086l-102.4 614.4c-4.659 27.904 14.182 54.272 42.086 58.931 2.867 0.461 5.632 0.666 8.448 0.666 24.576 0 46.285-17.766 50.432-42.752z"></path>
</symbol>
<symbol id="icon-cross" viewBox="0 0 1024 1024">
	<title>cross</title>
	<path class="path1" d="M734.618 760.269c-24.013 24.013-62.925 24.013-86.886 0l-135.731-155.136-135.731 155.085c-24.013 24.013-62.925 24.013-86.886 0-24.013-24.013-24.013-62.925 0-86.886l141.21-161.28-141.261-161.382c-24.013-24.013-24.013-62.874 0-86.886s62.874-24.013 86.886 0l135.782 155.187 135.731-155.187c24.013-24.013 62.874-24.013 86.886 0s24.013 62.925 0 86.886l-141.21 161.382 141.21 161.28c24.013 24.013 24.013 62.925 0 86.938z"></path>
</symbol>
<symbol id="icon-magnifying-glass" viewBox="0 0 1024 1024">
	<title>magnifying-glass</title>
	<path class="path1" d="M898.304 791.91l-193.485-193.485c29.184-47.872 45.978-104.192 45.978-164.352 0-174.95-151.603-326.502-326.554-326.502-174.95-0.051-316.723 141.773-316.723 316.723 0 174.899 151.603 326.502 326.502 326.502 58.214 0 112.64-15.821 159.488-43.213l194.509 194.611c19.046 18.995 49.92 18.995 68.915 0l48.282-48.282c18.995-18.995 12.083-43.008-6.912-62.003zM205.005 424.294c0-121.139 98.15-219.29 219.238-219.29 121.139 0 229.069 107.878 229.069 229.069 0 121.088-98.202 219.29-219.29 219.29-121.139-0.051-229.018-107.981-229.018-229.069z"></path>
</symbol>
<symbol id="icon-mail" viewBox="0 0 1024 1024">
	<title>mail</title>
	<path class="path1" d="M80.589 270.643c24.986 13.414 371.098 199.373 384 206.285s29.594 10.189 46.387 10.189c16.794 0 33.485-3.277 46.387-10.189s359.014-192.87 384-206.285c25.037-13.466 48.691-65.843 2.765-65.843h-866.253c-45.926 0-22.272 52.378 2.714 65.843zM952.986 383.437c-28.416 14.797-378.214 197.069-395.622 206.182s-29.594 10.189-46.387 10.189-28.979-1.075-46.387-10.189-365.21-191.437-393.626-206.234c-19.968-10.445-19.763 1.792-19.763 11.213s0 373.402 0 373.402c0 21.504 28.979 51.2 51.2 51.2h819.2c22.221 0 51.2-29.696 51.2-51.2 0 0 0-363.93 0-373.35s0.205-21.658-19.814-11.213z"></path>
</symbol>
<symbol id="icon-menu" viewBox="0 0 1024 1024">
	<title>menu</title>
	<path class="path1" d="M839.68 460.8h-655.36c-28.262 0-30.72 22.886-30.72 51.2s2.458 51.2 30.72 51.2h655.36c28.262 0 30.72-22.886 30.72-51.2s-2.458-51.2-30.72-51.2zM839.68 665.6h-655.36c-28.262 0-30.72 22.886-30.72 51.2s2.458 51.2 30.72 51.2h655.36c28.262 0 30.72-22.886 30.72-51.2s-2.458-51.2-30.72-51.2zM184.32 358.4h655.36c28.262 0 30.72-22.886 30.72-51.2s-2.458-51.2-30.72-51.2h-655.36c-28.262 0-30.72 22.886-30.72 51.2s2.458 51.2 30.72 51.2z"></path>
</symbol>
<symbol id="icon-minus" viewBox="0 0 1024 1024">
	<title>minus</title>
	<path class="path1" d="M819.2 512c0 28.314-2.458 51.2-30.771 51.2h-552.858c-28.262 0-30.771-22.886-30.771-51.2s2.509-51.2 30.771-51.2h552.909c28.262 0 30.72 22.886 30.72 51.2z"></path>
</symbol>
<symbol id="icon-plus" viewBox="0 0 1024 1024">
	<title>plus</title>
	<path class="path1" d="M819.2 512c0 28.314-2.458 51.2-30.771 51.2h-225.229v225.229c0 28.262-22.886 30.771-51.2 30.771s-51.2-2.509-51.2-30.771v-225.229h-225.229c-28.262 0-30.771-22.886-30.771-51.2s2.509-51.2 30.771-51.2h225.229v-225.229c0-28.314 22.886-30.771 51.2-30.771s51.2 2.458 51.2 30.771v225.229h225.229c28.314 0 30.771 22.886 30.771 51.2z"></path>
</symbol>
<symbol id="icon-behance" viewBox="0 0 1024 1024">
	<title>behance</title>
	<path class="path1" d="M413.286 476.211c0 0 96.87-7.526 96.87-125.901 0-118.528-79.258-176.179-179.712-176.179h-330.445v661.811h330.445c0 0 201.779 6.605 201.779-195.379-0.051-0.051 8.755-164.352-118.938-164.352zM145.613 291.686h184.832c0 0 44.954 0 44.954 68.813 0 68.915-26.419 78.899-56.422 78.899h-173.363v-147.712zM321.075 718.285h-175.462v-176.896h184.832c0 0 66.97-0.922 66.97 90.88 0 77.414-50.022 85.453-76.339 86.016zM801.229 342.426c-244.275 0-244.070 254.31-244.070 254.31s-16.691 252.979 244.070 252.979c0 0 217.242 13.005 217.242-175.974h-111.718c0 0 3.686 71.219-101.786 71.219 0 0-111.821 7.782-111.821-115.2h328.858c0.051-0.051 36.301-287.334-220.774-287.334zM900.608 541.389h-208.589c0 0 13.619-101.99 111.718-101.99s96.87 101.99 96.87 101.99zM926.566 212.992h-261.99v81.613h261.99v-81.613z"></path>
</symbol>
<symbol id="icon-dribbble" viewBox="0 0 1024 1024">
	<title>dribbble</title>
	<path class="path1" d="M489.728 379.955c-69.53-123.597-143.923-224.41-149.35-231.834-112.179 53.043-195.891 156.416-222.054 280.934 10.547 0.205 178.278 2.202 371.405-49.101zM539.802 515.123c5.222-1.69 10.547-3.277 15.821-4.813-10.086-22.886-21.094-45.824-32.614-68.403-207.155 62.054-405.914 57.549-412.928 57.344-0.154 4.301-0.358 8.499-0.358 12.8 0 103.373 39.066 197.683 103.219 268.902l-0.256-0.307c0 0 110.080-195.277 327.117-265.523zM264.755 829.133v-0.205c-2.97-2.304-6.144-4.403-9.114-6.912 5.427 4.352 9.114 7.117 9.114 7.117zM415.642 121.446c-0.358 0.102-0.768 0.205-0.768 0.205 0.307-0.102 0.717-0.102 0.717-0.102l0.051-0.102zM777.677 210.125c-70.861-62.362-163.789-100.403-265.677-100.403-32.717 0-64.41 3.994-94.822 11.315 6.144 8.192 81.664 108.493 150.426 234.701 151.654-56.781 208.947-143.974 210.074-145.613zM512 983.040c-260.096 0-470.989-210.893-470.989-470.989-0.051-260.198 210.842-471.091 470.989-471.091 260.198 0 471.040 210.893 471.040 471.091 0 260.096-210.842 470.989-471.040 470.989zM580.403 577.843c-236.083 82.278-314.061 247.706-315.648 251.085 68.301 53.299 153.907 85.299 247.194 85.299 55.706 0 108.8-11.315 157.030-31.795-5.939-35.277-29.338-158.515-85.965-305.51-0.819 0.307-1.69 0.614-2.611 0.922zM598.528 415.744c9.421 19.098 18.33 38.605 26.778 58.317 3.021 6.912 5.837 13.926 8.704 20.787 138.906-17.51 275.712 12.186 280.218 13.107-0.973-95.386-35.123-182.886-91.494-251.494-0.922 1.178-65.485 94.362-224.205 159.283zM658.483 558.336c52.787 145.203 74.189 263.27 78.285 287.283 90.317-60.979 154.522-157.696 172.39-269.824-7.987-2.56-120.627-38.246-250.675-17.459z"></path>
</symbol>
<symbol id="icon-github" viewBox="0 0 1024 1024">
	<title>github</title>
	<path class="path1" d="M674.816 579.021c-36.762 0-66.56 41.318-66.56 92.109 0 50.893 29.798 92.211 66.56 92.211s66.56-41.318 66.56-92.211c-0.051-50.79-29.798-92.109-66.56-92.109zM906.547 339.251c7.629-18.688 7.936-124.877-32.512-226.611 0 0-92.723 10.189-233.011 106.496-29.44-8.192-79.258-12.186-128.973-12.186-49.818 0-99.584 3.994-129.024 12.186-140.339-96.307-233.062-106.496-233.062-106.496-40.397 101.734-39.987 207.923-32.461 226.611-47.514 51.61-76.544 113.613-76.544 198.195 0 367.923 305.306 373.811 382.31 373.811 17.51 0 52.122 0.102 88.781 0.102 36.608 0 71.27-0.102 88.678-0.102 77.107 0 382.31-5.888 382.31-373.811 0-84.582-28.979-146.586-76.493-198.195zM513.434 866.048h-2.867c-193.075 0-343.501-22.989-343.501-210.688 0-45.005 15.872-86.682 53.606-121.293 62.822-57.702 169.216-27.187 289.894-27.187 0.512 0 1.024 0 1.485 0 0.512 0 0.922 0 1.382 0 120.678 0 227.123-30.515 289.997 27.187 37.632 34.611 53.504 76.288 53.504 121.293 0 187.699-150.374 210.688-343.501 210.688zM349.235 579.021c-36.762 0-66.56 41.318-66.56 92.109 0 50.893 29.798 92.211 66.56 92.211 36.813 0 66.611-41.318 66.611-92.211 0-50.79-29.798-92.109-66.611-92.109z"></path>
</symbol>
<symbol id="icon-linkedin" viewBox="0 0 1024 1024">
	<title>linkedin</title>
	<path class="path1" d="M256 153.6c0 54.374-36.352 101.171-102.451 101.171-62.208 0-102.349-44.134-102.349-98.509 0-55.808 38.912-105.062 102.4-105.062s101.171 46.592 102.4 102.4zM51.2 972.8v-665.6h204.8v665.6h-204.8z"></path>
	<path class="path2" d="M358.4 534.733c0-79.104-2.611-145.203-5.222-202.291h184.013l9.114 88.218h3.891c25.907-41.523 89.395-102.4 195.686-102.4 129.638 0 226.918 86.784 226.918 273.51v381.030h-204.8v-351.283c0-81.613-31.078-143.872-102.4-143.872-54.374 0-81.613 44.032-95.898 80.333-5.222 13.005-6.502 31.13-6.502 49.306v365.517h-204.8v-438.067z"></path>
</symbol>
<symbol id="icon-twitter" viewBox="0 0 1024 1024">
	<title>twitter</title>
	<path class="path1" d="M886.579 319.795c0.41 8.294 0.563 16.691 0.563 24.986 0 255.488-194.406 549.99-549.888 549.99-109.21 0-210.739-32-296.294-86.886 15.155 1.792 30.515 2.714 46.080 2.714 90.624 0 173.926-30.925 240.026-82.688-84.531-1.587-155.955-57.395-180.531-134.195 11.776 2.202 23.91 3.379 36.352 3.379 17.664 0 34.765-2.304 50.944-6.707-88.422-17.818-155.034-95.898-155.034-189.594 0-0.819 0-1.587 0-2.406 26.061 14.49 55.91 23.194 87.552 24.218-51.866-34.714-86.016-93.798-86.016-160.922 0-35.379 9.523-68.608 26.214-97.178 95.283 116.992 237.773 193.894 398.387 201.984-3.277-14.182-4.966-28.877-4.966-44.083 0-106.701 86.477-193.178 193.229-193.178 55.603 0 105.83 23.398 141.107 60.979 43.981-8.704 85.35-24.781 122.726-46.899-14.438 45.107-45.107 82.995-84.992 106.906 39.117-4.71 76.288-15.002 111.002-30.413-25.907 38.81-58.675 72.806-96.461 99.994z"></path>
</symbol>
<symbol id="icon-codepen" viewBox="0 0 1024 1024">
	<title>codepen</title>
	<path class="path1" d="M123.429 668l344.571 229.714v-205.143l-190.857-127.429zM88 585.714l110.286-73.714-110.286-73.714v147.429zM556 897.714l344.571-229.714-153.714-102.857-190.857 127.429v205.143zM512 616l155.429-104-155.429-104-155.429 104zM277.143 458.857l190.857-127.429v-205.143l-344.571 229.714zM825.714 512l110.286 73.714v-147.429zM746.857 458.857l153.714-102.857-344.571-229.714v205.143zM1024 356v312q0 23.429-19.429 36.571l-468 312q-12 7.429-24.571 7.429t-24.571-7.429l-468-312q-19.429-13.143-19.429-36.571v-312q0-23.429 19.429-36.571l468-312q12-7.429 24.571-7.429t24.571 7.429l468 312q19.429 13.143 19.429 36.571z"></path>
</symbol>
</defs>
</svg>
